<svg width="58" height="58" viewBox="0 0 58 58" fill="none" xmlns="http://www.w3.org/2000/svg">
  <g clip-path="url(#clip0_14_986)">
  <rect width="58" height="58" rx="29" fill="#F5FBFF"/>
  <path d="M4.16259 7.68165L-3.23804 29.2607L5.58257 32.2858L12.9832 10.7067L4.16259 7.68165Z" fill="#00C79F"/>
  <path d="M19.3909 9.50872L18.5329 9.93069C17.4639 10.4511 16.2121 10.5214 15.1009 10.1276L13.6662 9.62125C13.5818 9.56498 13.4974 9.52279 13.413 9.49466L4.57996 6.47059C3.91888 6.24554 3.18748 6.59718 2.96243 7.25825L-4.45005 28.8487C-4.56258 29.1722 -4.53444 29.5238 -4.39379 29.8192C-4.25314 30.1146 -3.98589 30.3537 -3.66239 30.4662L5.15664 33.4903C5.29729 33.5325 5.43795 33.5606 5.56454 33.5606C6.09902 33.5606 6.59131 33.223 6.77416 32.7026L13.7647 12.364L14.2429 12.5328C16.0011 13.1517 17.9702 13.0391 19.6581 12.2234L20.5161 11.8014C21.571 11.281 22.8088 11.2106 23.9199 11.5904L40.1374 17.1744C39.9686 17.8495 39.631 18.6513 39.0121 19.0873C38.3229 19.5655 37.2962 19.5655 35.9459 19.1013L28.7162 16.6258C28.3787 16.5133 28.013 16.5414 27.7035 16.7102C27.3941 16.879 27.169 17.1744 27.0706 17.512C27.0565 17.5541 26.0579 21.2956 22.865 23.0115C20.8537 24.0946 18.35 24.1368 15.4103 23.1381C14.7493 22.9131 14.0179 23.2647 13.7928 23.9258C13.5678 24.5869 13.9194 25.3183 14.5805 25.5433C16.2683 26.12 17.8577 26.4154 19.3346 26.4154C21.0506 26.4154 22.6259 26.0356 24.0606 25.262C26.9159 23.7289 28.3927 21.0424 29.0679 19.4389L35.1019 21.5065C37.254 22.252 39.0543 22.1395 40.4468 21.169C42.6832 19.6218 42.7957 16.4852 42.8098 16.3445C42.8239 15.7819 42.4722 15.2896 41.9518 15.1068L24.7357 9.17115C23.0057 8.5804 21.0506 8.70699 19.3909 9.50872ZM4.79094 30.6631L-1.6229 28.4689L4.94566 9.29774L11.3595 11.4919L4.79094 30.6631Z" fill="#2D2B2B"/>
  <path d="M44.7084 11.9243L54.7345 32.4144L63.1098 28.3163L53.0837 7.82616L44.7084 11.9243Z" fill="#3597FF"/>
  <path d="M53.176 32.1119L50.152 34.8969C47.4092 37.4146 44.3148 39.5385 40.9672 41.1701L24.9186 49.0186C24.2153 49.3702 23.3573 49.0748 23.0057 48.3575C22.654 47.6542 22.9494 46.7962 23.6668 46.4446L23.8637 46.3462L32.6405 42.0562C33.2734 41.7468 33.5407 40.9872 33.2312 40.3543C32.9218 39.7213 32.1623 39.4541 31.5293 39.7635L22.7525 44.0535L18.336 46.2196C17.6327 46.5712 16.7747 46.2758 16.4231 45.5585C16.2543 45.2209 16.2261 44.8271 16.3527 44.4754C16.4793 44.1097 16.7325 43.8284 17.0701 43.6597L20.4036 42.0281L29.9399 37.3583C30.5729 37.0489 30.8401 36.2894 30.5307 35.6564C30.2212 35.0235 29.4617 34.7562 28.8288 35.0657L19.2783 39.7495L18.9126 39.9323L14.3554 42.1687C14.0179 42.3375 13.624 42.3656 13.2724 42.239C12.9067 42.1125 12.6254 41.8593 12.4566 41.5217C12.105 40.8184 12.4003 39.9604 13.1177 39.6088L14.693 38.8352L17.914 37.2599L18.8142 36.8239L26.2126 33.195C26.8455 32.8855 27.1128 32.126 26.8033 31.4931C26.4939 30.8601 25.7344 30.5929 25.1014 30.9023L17.0841 34.8266L13.5818 36.5425C12.8786 36.8801 12.0206 36.5988 11.6689 35.8815C11.5002 35.5439 11.472 35.1501 11.5986 34.7984C11.7252 34.4327 11.9784 34.1514 12.3159 33.9826L18.4344 30.9867C19.0674 30.6773 19.3346 29.9177 19.0252 29.2848C18.7157 28.6518 17.9562 28.3846 17.3232 28.694L11.2048 31.69C10.2483 32.1541 9.53099 32.9699 9.19342 33.9686C8.85585 34.9672 8.91211 36.0502 9.37627 37.0067C9.67165 37.5974 10.0936 38.0897 10.6 38.4554C9.71384 39.6229 9.4888 41.2263 10.178 42.6329C10.6422 43.5893 11.458 44.3067 12.4566 44.6442C12.8786 44.7849 13.3005 44.8552 13.7225 44.8552C13.7084 45.4882 13.835 46.1211 14.1304 46.6978C14.8196 48.1043 16.2402 48.9201 17.703 48.9201C18.2938 48.9201 18.8845 48.7935 19.4471 48.5122L20.3473 48.0762C20.3895 48.5544 20.5161 49.0186 20.7271 49.4687C21.4163 50.8752 22.8369 51.691 24.2997 51.691C24.8904 51.691 25.4812 51.5644 26.0438 51.2831L42.0925 43.4346C45.6651 41.6905 48.9564 39.44 51.882 36.7535L55.4687 33.4481L63.6829 29.4254C64.3159 29.116 64.5831 28.3565 64.2737 27.7235L54.2309 7.25831C54.0762 6.94887 53.823 6.72383 53.4995 6.6113C53.176 6.49878 52.8244 6.52691 52.529 6.66756L44.146 10.7606C43.5131 11.07 43.2458 11.8296 43.5553 12.4625L53.176 32.1119ZM52.5009 9.52285L61.4043 27.7376L55.314 30.7195L46.4106 12.5047L52.5009 9.52285Z" fill="#2D2B2B"/>
  </g>
  <defs>
  <clipPath id="clip0_14_986">
  <rect width="58" height="58" rx="29" fill="white"/>
  </clipPath>
  </defs>
</svg>